<svg width="408" height="61" viewBox="0 0 408 61" fill="none" xmlns="http://www.w3.org/2000/svg">
<path d="M127.064 49.576C124.472 49.576 122.056 49.16 119.816 48.328C117.608 47.464 115.688 46.248 114.056 44.68C112.424 43.112 111.144 41.272 110.216 39.16C109.32 37.048 108.872 34.728 108.872 32.2C108.872 29.672 109.32 27.352 110.216 25.24C111.144 23.128 112.424 21.288 114.056 19.72C115.72 18.152 117.656 16.952 119.864 16.12C122.072 15.256 124.488 14.824 127.112 14.824C130.024 14.824 132.648 15.336 134.984 16.36C137.352 17.352 139.336 18.824 140.936 20.776L135.944 25.384C134.792 24.072 133.512 23.096 132.104 22.456C130.696 21.784 129.16 21.448 127.496 21.448C125.928 21.448 124.488 21.704 123.176 22.216C121.864 22.728 120.728 23.464 119.768 24.424C118.808 25.384 118.056 26.52 117.512 27.832C117 29.144 116.744 30.6 116.744 32.2C116.744 33.8 117 35.256 117.512 36.568C118.056 37.88 118.808 39.016 119.768 39.976C120.728 40.936 121.864 41.672 123.176 42.184C124.488 42.696 125.928 42.952 127.496 42.952C129.16 42.952 130.696 42.632 132.104 41.992C133.512 41.32 134.792 40.312 135.944 38.968L140.936 43.576C139.336 45.528 137.352 47.016 134.984 48.04C132.648 49.064 130.008 49.576 127.064 49.576ZM145.659 49V13.384H153.147V49H145.659ZM172.385 49.384C169.633 49.384 167.185 48.808 165.041 47.656C162.929 46.504 161.249 44.936 160.001 42.952C158.785 40.936 158.177 38.648 158.177 36.088C158.177 33.496 158.785 31.208 160.001 29.224C161.249 27.208 162.929 25.64 165.041 24.52C167.185 23.368 169.633 22.792 172.385 22.792C175.105 22.792 177.537 23.368 179.681 24.52C181.825 25.64 183.505 27.192 184.721 29.176C185.937 31.16 186.545 33.464 186.545 36.088C186.545 38.648 185.937 40.936 184.721 42.952C183.505 44.936 181.825 46.504 179.681 47.656C177.537 48.808 175.105 49.384 172.385 49.384ZM172.385 43.24C173.633 43.24 174.753 42.952 175.745 42.376C176.737 41.8 177.521 40.984 178.097 39.928C178.673 38.84 178.961 37.56 178.961 36.088C178.961 34.584 178.673 33.304 178.097 32.248C177.521 31.192 176.737 30.376 175.745 29.8C174.753 29.224 173.633 28.936 172.385 28.936C171.137 28.936 170.017 29.224 169.025 29.8C168.033 30.376 167.233 31.192 166.625 32.248C166.049 33.304 165.761 34.584 165.761 36.088C165.761 37.56 166.049 38.84 166.625 39.928C167.233 40.984 168.033 41.8 169.025 42.376C170.017 42.952 171.137 43.24 172.385 43.24ZM202.446 49.384C200.302 49.384 198.382 48.968 196.686 48.136C195.022 47.304 193.726 46.04 192.798 44.344C191.87 42.616 191.406 40.424 191.406 37.768V23.176H198.894V36.664C198.894 38.808 199.342 40.392 200.238 41.416C201.166 42.408 202.462 42.904 204.126 42.904C205.278 42.904 206.302 42.664 207.198 42.184C208.094 41.672 208.798 40.904 209.31 39.88C209.822 38.824 210.078 37.512 210.078 35.944V23.176H217.566V49H210.462V41.896L211.758 43.96C210.894 45.752 209.614 47.112 207.918 48.04C206.254 48.936 204.43 49.384 202.446 49.384ZM235.591 49.384C233.159 49.384 230.967 48.84 229.015 47.752C227.063 46.632 225.511 45.08 224.359 43.096C223.239 41.112 222.679 38.776 222.679 36.088C222.679 33.368 223.239 31.016 224.359 29.032C225.511 27.048 227.063 25.512 229.015 24.424C230.967 23.336 233.159 22.792 235.591 22.792C237.767 22.792 239.671 23.272 241.303 24.232C242.935 25.192 244.199 26.648 245.095 28.6C245.991 30.552 246.439 33.048 246.439 36.088C246.439 39.096 246.007 41.592 245.143 43.576C244.279 45.528 243.031 46.984 241.399 47.944C239.799 48.904 237.863 49.384 235.591 49.384ZM236.887 43.24C238.103 43.24 239.207 42.952 240.199 42.376C241.191 41.8 241.975 40.984 242.551 39.928C243.159 38.84 243.463 37.56 243.463 36.088C243.463 34.584 243.159 33.304 242.551 32.248C241.975 31.192 241.191 30.376 240.199 29.8C239.207 29.224 238.103 28.936 236.887 28.936C235.639 28.936 234.519 29.224 233.527 29.8C232.535 30.376 231.735 31.192 231.127 32.248C230.551 33.304 230.263 34.584 230.263 36.088C230.263 37.56 230.551 38.84 231.127 39.928C231.735 40.984 232.535 41.8 233.527 42.376C234.519 42.952 235.639 43.24 236.887 43.24ZM243.655 49V43.72L243.799 36.04L243.319 28.408V13.384H250.807V49H243.655ZM261.001 58.696C259.657 58.696 258.329 58.488 257.017 58.072C255.705 57.656 254.633 57.08 253.801 56.344L256.537 51.016C257.113 51.528 257.769 51.928 258.505 52.216C259.273 52.504 260.025 52.648 260.761 52.648C261.817 52.648 262.649 52.392 263.257 51.88C263.897 51.4 264.473 50.584 264.985 49.432L266.329 46.264L266.905 45.448L276.169 23.176H283.369L271.705 50.584C270.873 52.664 269.913 54.296 268.825 55.48C267.769 56.664 266.585 57.496 265.273 57.976C263.993 58.456 262.569 58.696 261.001 58.696ZM265.417 50.008L253.897 23.176H261.625L270.553 44.776L265.417 50.008ZM300.547 49V15.4H315.811C319.459 15.4 322.675 16.104 325.459 17.512C328.243 18.888 330.419 20.824 331.987 23.32C333.555 25.816 334.339 28.776 334.339 32.2C334.339 35.592 333.555 38.552 331.987 41.08C330.419 43.576 328.243 45.528 325.459 46.936C322.675 48.312 319.459 49 315.811 49H300.547ZM308.323 42.616H315.427C317.667 42.616 319.603 42.2 321.234 41.368C322.899 40.504 324.179 39.288 325.075 37.72C326.003 36.152 326.467 34.312 326.467 32.2C326.467 30.056 326.003 28.216 325.075 26.68C324.179 25.112 322.899 23.912 321.234 23.08C319.603 22.216 317.667 21.784 315.427 21.784H308.323V42.616ZM339.675 49V23.176H347.163V49H339.675ZM343.419 19.576C342.043 19.576 340.923 19.176 340.059 18.376C339.195 17.576 338.763 16.584 338.763 15.4C338.763 14.216 339.195 13.224 340.059 12.424C340.923 11.624 342.043 11.224 343.419 11.224C344.795 11.224 345.915 11.608 346.779 12.376C347.643 13.112 348.075 14.072 348.075 15.256C348.075 16.504 347.643 17.544 346.779 18.376C345.947 19.176 344.827 19.576 343.419 19.576ZM362.8 49.384C360.592 49.384 358.464 49.128 356.416 48.616C354.4 48.072 352.8 47.4 351.616 46.6L354.112 41.224C355.296 41.96 356.688 42.568 358.288 43.048C359.92 43.496 361.52 43.72 363.088 43.72C364.816 43.72 366.032 43.512 366.736 43.096C367.472 42.68 367.84 42.104 367.84 41.368C367.84 40.76 367.552 40.312 366.976 40.024C366.432 39.704 365.696 39.464 364.768 39.304C363.84 39.144 362.816 38.984 361.696 38.824C360.608 38.664 359.504 38.456 358.384 38.2C357.264 37.912 356.24 37.496 355.312 36.952C354.384 36.408 353.632 35.672 353.056 34.744C352.512 33.816 352.24 32.616 352.24 31.144C352.24 29.512 352.704 28.072 353.632 26.824C354.592 25.576 355.968 24.6 357.76 23.896C359.552 23.16 361.696 22.792 364.192 22.792C365.952 22.792 367.744 22.984 369.568 23.368C371.392 23.752 372.912 24.312 374.128 25.048L371.632 30.376C370.384 29.64 369.12 29.144 367.84 28.888C366.592 28.6 365.376 28.456 364.192 28.456C362.528 28.456 361.312 28.68 360.544 29.128C359.776 29.576 359.392 30.152 359.392 30.856C359.392 31.496 359.664 31.976 360.208 32.296C360.784 32.616 361.536 32.872 362.464 33.064C363.392 33.256 364.4 33.432 365.488 33.592C366.608 33.72 367.728 33.928 368.848 34.216C369.968 34.504 370.976 34.92 371.872 35.464C372.8 35.976 373.552 36.696 374.128 37.624C374.704 38.52 374.992 39.704 374.992 41.176C374.992 42.776 374.512 44.2 373.552 45.448C372.592 46.664 371.2 47.624 369.376 48.328C367.584 49.032 365.392 49.384 362.8 49.384ZM385.804 43.72L385.996 34.6L398.044 23.176H406.972L395.404 34.936L391.516 38.104L385.804 43.72ZM379.612 49V13.384H387.1V49H379.612ZM398.86 49L390.124 38.152L394.828 32.344L407.932 49H398.86Z" fill="url(#paint0_linear_14_11)"/>
<path d="M12 45.3191C-1.33333 45.3191 -1.33333 25.2764 12 25.2764C12 5.2337 38.6667 -8.12811 52 11.9146C65.3333 5.23369 78.6667 18.5955 72 31.9573C85.3333 31.9573 85.3333 52 72 52H12V45.3191Z" stroke="url(#paint1_linear_14_11)" stroke-width="4"/>
<defs>
<linearGradient id="paint0_linear_14_11" x1="107" y1="49" x2="408" y2="2" gradientUnits="userSpaceOnUse">
<stop stop-color="#AF2BBF"/>
<stop offset="0.505" stop-color="#7763D2"/>
<stop offset="1" stop-color="#4A90E2"/>
</linearGradient>
<linearGradient id="paint1_linear_14_11" x1="82" y1="52" x2="2" y2="2" gradientUnits="userSpaceOnUse">
<stop stop-color="#AF2CC0"/>
<stop offset="1" stop-color="#4A90E2"/>
</linearGradient>
</defs>
</svg>
