<svg width="20" height="20" viewBox="0 0 20 20" fill="none" xmlns="http://www.w3.org/2000/svg">
<path d="M5.04999 4.462C5.32215 4.5578 5.61181 4.59358 5.8991 4.56688C6.18638 4.54019 6.46449 4.45165 6.71434 4.30735C6.96418 4.16305 7.17985 3.9664 7.34653 3.73089C7.51322 3.49539 7.62697 3.22661 7.67999 2.943L7.99999 1.223C9.31581 0.923256 10.6822 0.923256 11.998 1.223L12.32 2.943C12.373 3.22661 12.4868 3.49539 12.6535 3.73089C12.8201 3.9664 13.0358 4.16305 13.2857 4.30735C13.5355 4.45165 13.8136 4.54019 14.1009 4.56688C14.3882 4.59358 14.6778 4.5578 14.95 4.462L16.599 3.882C17.5169 4.87077 18.2008 6.05326 18.6 7.342L17.27 8.482C17.0509 8.66976 16.8751 8.90269 16.7546 9.1648C16.634 9.42691 16.5716 9.712 16.5716 10.0005C16.5716 10.289 16.634 10.5741 16.7546 10.8362C16.8751 11.0983 17.0509 11.3312 17.27 11.519L18.6 12.658C18.2008 13.9467 17.5169 15.1292 16.599 16.118L14.949 15.538C14.6768 15.4422 14.3872 15.4064 14.0999 15.4331C13.8126 15.4598 13.5345 15.5483 13.2847 15.6926C13.0348 15.837 12.8191 16.0336 12.6525 16.2691C12.4858 16.5046 12.372 16.7734 12.319 17.057L12 18.777C10.6842 19.0767 9.31781 19.0767 8.00199 18.777L7.67999 17.057C7.62697 16.7734 7.51322 16.5046 7.34653 16.2691C7.17985 16.0336 6.96418 15.837 6.71434 15.6926C6.46449 15.5483 6.18638 15.4598 5.8991 15.4331C5.61181 15.4064 5.32215 15.4422 5.04999 15.538L3.40099 16.118C2.48309 15.1292 1.79922 13.9467 1.39999 12.658L2.72999 11.518C2.94887 11.3302 3.12456 11.0974 3.245 10.8354C3.36545 10.5733 3.42781 10.2884 3.42781 10C3.42781 9.71163 3.36545 9.42666 3.245 9.16464C3.12456 8.90263 2.94887 8.66976 2.72999 8.482L1.39999 7.342C1.79893 6.05335 2.48245 4.87087 3.39999 3.882L5.04999 4.462ZM9.99999 7C10.7956 7 11.5587 7.31607 12.1213 7.87868C12.6839 8.44129 13 9.20435 13 10C13 10.7956 12.6839 11.5587 12.1213 12.1213C11.5587 12.6839 10.7956 13 9.99999 13C9.20434 13 8.44128 12.6839 7.87867 12.1213C7.31606 11.5587 6.99999 10.7956 6.99999 10C6.99999 9.20435 7.31606 8.44129 7.87867 7.87868C8.44128 7.31607 9.20434 7 9.99999 7Z" stroke="#A4A4A4" stroke-width="2" stroke-linecap="round" stroke-linejoin="round"/>
</svg>
