<svg width="22" height="22" viewBox="0 0 22 22" fill="none" xmlns="http://www.w3.org/2000/svg">
<path d="M8.15301 4.408C9.42001 2.136 10.053 1 11 1C11.947 1 12.58 2.136 13.847 4.408L14.175 4.996C14.535 5.642 14.715 5.965 14.995 6.178C15.275 6.391 15.625 6.47 16.325 6.628L16.961 6.772C19.421 7.329 20.65 7.607 20.943 8.548C21.235 9.488 20.397 10.469 18.72 12.43L18.286 12.937C17.81 13.494 17.571 13.773 17.464 14.117C17.357 14.462 17.393 14.834 17.465 15.577L17.531 16.254C17.784 18.871 17.911 20.179 17.145 20.76C16.379 21.341 15.227 20.811 12.925 19.751L12.328 19.477C11.674 19.175 11.347 19.025 11 19.025C10.653 19.025 10.326 19.175 9.67201 19.477L9.07601 19.751C6.77301 20.811 5.62101 21.341 4.85601 20.761C4.08901 20.179 4.21601 18.871 4.46901 16.254L4.53501 15.578C4.60701 14.834 4.64301 14.462 4.53501 14.118C4.42901 13.773 4.19001 13.494 3.71401 12.938L3.28001 12.43C1.60301 10.47 0.765006 9.489 1.05701 8.548C1.34901 7.607 2.58001 7.328 5.04001 6.772L5.67601 6.628C6.37501 6.47 6.72401 6.391 7.00501 6.178C7.28601 5.965 7.46501 5.642 7.82501 4.996L8.15301 4.408Z" stroke="#4A90E2" stroke-width="1.5"/>
</svg>
