<svg width="14" height="12" viewBox="0 0 14 12" fill="none" xmlns="http://www.w3.org/2000/svg">
<path d="M1 11V2C1 1.73478 1.10536 1.48043 1.29289 1.29289C1.48043 1.10536 1.73478 1 2 1H5C6.5 1 6.5 2.5 7.5 2.5H11C11.2652 2.5 11.5196 2.60536 11.7071 2.79289C11.8946 2.98043 12 3.23478 12 3.5V4.5M1 11L2.8915 4.853C2.92294 4.75077 2.98634 4.66133 3.07237 4.59779C3.15841 4.53425 3.26255 4.49998 3.3695 4.5H12M1 11H10.7615C10.9753 10.9999 11.1835 10.9313 11.3555 10.8043C11.5274 10.6772 11.6541 10.4984 11.717 10.294L13.301 5.147C13.324 5.07221 13.3291 4.99306 13.316 4.91593C13.3028 4.8388 13.2717 4.76583 13.2253 4.70289C13.1788 4.63996 13.1181 4.58881 13.0483 4.55357C12.9784 4.51833 12.9012 4.49998 12.823 4.5H12" stroke="#A4A4A4" stroke-linecap="round"/>
</svg>
