<svg width="300" height="48" viewBox="0 0 300 48" fill="none" xmlns="http://www.w3.org/2000/svg">
<path d="M19.064 38.576C16.472 38.576 14.056 38.16 11.816 37.328C9.608 36.464 7.688 35.248 6.056 33.68C4.424 32.112 3.144 30.272 2.216 28.16C1.32 26.048 0.872 23.728 0.872 21.2C0.872 18.672 1.32 16.352 2.216 14.24C3.144 12.128 4.424 10.288 6.056 8.72C7.72 7.152 9.656 5.952 11.864 5.12C14.072 4.256 16.488 3.824 19.112 3.824C22.024 3.824 24.648 4.336 26.984 5.36C29.352 6.352 31.336 7.824 32.936 9.776L27.944 14.384C26.792 13.072 25.512 12.096 24.104 11.456C22.696 10.784 21.16 10.448 19.496 10.448C17.928 10.448 16.488 10.704 15.176 11.216C13.864 11.728 12.728 12.464 11.768 13.424C10.808 14.384 10.056 15.52 9.512 16.832C9 18.144 8.744 19.6 8.744 21.2C8.744 22.8 9 24.256 9.512 25.568C10.056 26.88 10.808 28.016 11.768 28.976C12.728 29.936 13.864 30.672 15.176 31.184C16.488 31.696 17.928 31.952 19.496 31.952C21.16 31.952 22.696 31.632 24.104 30.992C25.512 30.32 26.792 29.312 27.944 27.968L32.936 32.576C31.336 34.528 29.352 36.016 26.984 37.04C24.648 38.064 22.008 38.576 19.064 38.576ZM37.6591 38V2.384H45.1471V38H37.6591ZM64.3846 38.384C61.6326 38.384 59.1846 37.808 57.0406 36.656C54.9286 35.504 53.2486 33.936 52.0006 31.952C50.7846 29.936 50.1766 27.648 50.1766 25.088C50.1766 22.496 50.7846 20.208 52.0006 18.224C53.2486 16.208 54.9286 14.64 57.0406 13.52C59.1846 12.368 61.6326 11.792 64.3846 11.792C67.1046 11.792 69.5366 12.368 71.6806 13.52C73.8246 14.64 75.5046 16.192 76.7206 18.176C77.9366 20.16 78.5446 22.464 78.5446 25.088C78.5446 27.648 77.9366 29.936 76.7206 31.952C75.5046 33.936 73.8246 35.504 71.6806 36.656C69.5366 37.808 67.1046 38.384 64.3846 38.384ZM64.3846 32.24C65.6326 32.24 66.7526 31.952 67.7446 31.376C68.7366 30.8 69.5206 29.984 70.0966 28.928C70.6726 27.84 70.9606 26.56 70.9606 25.088C70.9606 23.584 70.6726 22.304 70.0966 21.248C69.5206 20.192 68.7366 19.376 67.7446 18.8C66.7526 18.224 65.6326 17.936 64.3846 17.936C63.1366 17.936 62.0166 18.224 61.0246 18.8C60.0326 19.376 59.2326 20.192 58.6246 21.248C58.0486 22.304 57.7606 23.584 57.7606 25.088C57.7606 26.56 58.0486 27.84 58.6246 28.928C59.2326 29.984 60.0326 30.8 61.0246 31.376C62.0166 31.952 63.1366 32.24 64.3846 32.24ZM94.4458 38.384C92.3018 38.384 90.3818 37.968 88.6858 37.136C87.0218 36.304 85.7258 35.04 84.7978 33.344C83.8698 31.616 83.4058 29.424 83.4058 26.768V12.176H90.8938V25.664C90.8938 27.808 91.3418 29.392 92.2378 30.416C93.1658 31.408 94.4618 31.904 96.1258 31.904C97.2778 31.904 98.3018 31.664 99.1978 31.184C100.094 30.672 100.798 29.904 101.31 28.88C101.822 27.824 102.078 26.512 102.078 24.944V12.176H109.566V38H102.462V30.896L103.758 32.96C102.894 34.752 101.614 36.112 99.9178 37.04C98.2538 37.936 96.4298 38.384 94.4458 38.384ZM127.591 38.384C125.159 38.384 122.967 37.84 121.015 36.752C119.063 35.632 117.511 34.08 116.359 32.096C115.239 30.112 114.679 27.776 114.679 25.088C114.679 22.368 115.239 20.016 116.359 18.032C117.511 16.048 119.063 14.512 121.015 13.424C122.967 12.336 125.159 11.792 127.591 11.792C129.767 11.792 131.671 12.272 133.303 13.232C134.935 14.192 136.199 15.648 137.095 17.6C137.991 19.552 138.439 22.048 138.439 25.088C138.439 28.096 138.007 30.592 137.143 32.576C136.279 34.528 135.031 35.984 133.399 36.944C131.799 37.904 129.863 38.384 127.591 38.384ZM128.887 32.24C130.103 32.24 131.207 31.952 132.199 31.376C133.191 30.8 133.975 29.984 134.551 28.928C135.159 27.84 135.463 26.56 135.463 25.088C135.463 23.584 135.159 22.304 134.551 21.248C133.975 20.192 133.191 19.376 132.199 18.8C131.207 18.224 130.103 17.936 128.887 17.936C127.639 17.936 126.519 18.224 125.527 18.8C124.535 19.376 123.735 20.192 123.127 21.248C122.551 22.304 122.263 23.584 122.263 25.088C122.263 26.56 122.551 27.84 123.127 28.928C123.735 29.984 124.535 30.8 125.527 31.376C126.519 31.952 127.639 32.24 128.887 32.24ZM135.655 38V32.72L135.799 25.04L135.319 17.408V2.384H142.807V38H135.655ZM153.001 47.696C151.657 47.696 150.329 47.488 149.017 47.072C147.705 46.656 146.633 46.08 145.801 45.344L148.537 40.016C149.113 40.528 149.769 40.928 150.505 41.216C151.273 41.504 152.025 41.648 152.761 41.648C153.817 41.648 154.649 41.392 155.257 40.88C155.897 40.4 156.473 39.584 156.985 38.432L158.329 35.264L158.905 34.448L168.169 12.176H175.369L163.705 39.584C162.873 41.664 161.913 43.296 160.825 44.48C159.769 45.664 158.585 46.496 157.273 46.976C155.993 47.456 154.569 47.696 153.001 47.696ZM157.417 39.008L145.897 12.176H153.625L162.553 33.776L157.417 39.008ZM192.547 38V4.4H207.811C211.459 4.4 214.675 5.104 217.459 6.512C220.243 7.888 222.419 9.824 223.987 12.32C225.555 14.816 226.339 17.776 226.339 21.2C226.339 24.592 225.555 27.552 223.987 30.08C222.419 32.576 220.243 34.528 217.459 35.936C214.675 37.312 211.459 38 207.811 38H192.547ZM200.323 31.616H207.427C209.667 31.616 211.603 31.2 213.234 30.368C214.899 29.504 216.179 28.288 217.075 26.72C218.003 25.152 218.467 23.312 218.467 21.2C218.467 19.056 218.003 17.216 217.075 15.68C216.179 14.112 214.899 12.912 213.234 12.08C211.603 11.216 209.667 10.784 207.427 10.784H200.323V31.616ZM231.675 38V12.176H239.163V38H231.675ZM235.419 8.576C234.043 8.576 232.923 8.176 232.059 7.376C231.195 6.576 230.763 5.584 230.763 4.4C230.763 3.216 231.195 2.224 232.059 1.424C232.923 0.623998 234.043 0.223997 235.419 0.223997C236.795 0.223997 237.915 0.607998 238.779 1.376C239.643 2.112 240.075 3.072 240.075 4.256C240.075 5.504 239.643 6.544 238.779 7.376C237.947 8.176 236.827 8.576 235.419 8.576ZM254.8 38.384C252.592 38.384 250.464 38.128 248.416 37.616C246.4 37.072 244.8 36.4 243.616 35.6L246.112 30.224C247.296 30.96 248.688 31.568 250.288 32.048C251.92 32.496 253.52 32.72 255.088 32.72C256.816 32.72 258.032 32.512 258.736 32.096C259.472 31.68 259.84 31.104 259.84 30.368C259.84 29.76 259.552 29.312 258.976 29.024C258.432 28.704 257.696 28.464 256.768 28.304C255.84 28.144 254.816 27.984 253.696 27.824C252.608 27.664 251.504 27.456 250.384 27.2C249.264 26.912 248.24 26.496 247.312 25.952C246.384 25.408 245.632 24.672 245.056 23.744C244.512 22.816 244.24 21.616 244.24 20.144C244.24 18.512 244.704 17.072 245.632 15.824C246.592 14.576 247.968 13.6 249.76 12.896C251.552 12.16 253.696 11.792 256.192 11.792C257.952 11.792 259.744 11.984 261.568 12.368C263.392 12.752 264.912 13.312 266.128 14.048L263.632 19.376C262.384 18.64 261.12 18.144 259.84 17.888C258.592 17.6 257.376 17.456 256.192 17.456C254.528 17.456 253.312 17.68 252.544 18.128C251.776 18.576 251.392 19.152 251.392 19.856C251.392 20.496 251.664 20.976 252.208 21.296C252.784 21.616 253.536 21.872 254.464 22.064C255.392 22.256 256.4 22.432 257.488 22.592C258.608 22.72 259.728 22.928 260.848 23.216C261.968 23.504 262.976 23.92 263.872 24.464C264.8 24.976 265.552 25.696 266.128 26.624C266.704 27.52 266.992 28.704 266.992 30.176C266.992 31.776 266.512 33.2 265.552 34.448C264.592 35.664 263.2 36.624 261.376 37.328C259.584 38.032 257.392 38.384 254.8 38.384ZM277.804 32.72L277.996 23.6L290.044 12.176H298.972L287.404 23.936L283.516 27.104L277.804 32.72ZM271.612 38V2.384H279.1V38H271.612ZM290.86 38L282.124 27.152L286.828 21.344L299.932 38H290.86Z" fill="url(#paint0_linear_14_12)"/>
<defs>
<linearGradient id="paint0_linear_14_12" x1="-1" y1="38" x2="300" y2="-9" gradientUnits="userSpaceOnUse">
<stop stop-color="#AF2BBF"/>
<stop offset="0.505" stop-color="#7763D2"/>
<stop offset="1" stop-color="#4A90E2"/>
</linearGradient>
</defs>
</svg>
