<svg width="409" height="62" viewBox="0 0 409 62" fill="none" xmlns="http://www.w3.org/2000/svg">
<path d="M128.064 50.576C125.472 50.576 123.056 50.16 120.816 49.328C118.608 48.464 116.688 47.248 115.056 45.68C113.424 44.112 112.144 42.272 111.216 40.16C110.32 38.048 109.872 35.728 109.872 33.2C109.872 30.672 110.32 28.352 111.216 26.24C112.144 24.128 113.424 22.288 115.056 20.72C116.72 19.152 118.656 17.952 120.864 17.12C123.072 16.256 125.488 15.824 128.112 15.824C131.024 15.824 133.648 16.336 135.984 17.36C138.352 18.352 140.336 19.824 141.936 21.776L136.944 26.384C135.792 25.072 134.512 24.096 133.104 23.456C131.696 22.784 130.16 22.448 128.496 22.448C126.928 22.448 125.488 22.704 124.176 23.216C122.864 23.728 121.728 24.464 120.768 25.424C119.808 26.384 119.056 27.52 118.512 28.832C118 30.144 117.744 31.6 117.744 33.2C117.744 34.8 118 36.256 118.512 37.568C119.056 38.88 119.808 40.016 120.768 40.976C121.728 41.936 122.864 42.672 124.176 43.184C125.488 43.696 126.928 43.952 128.496 43.952C130.16 43.952 131.696 43.632 133.104 42.992C134.512 42.32 135.792 41.312 136.944 39.968L141.936 44.576C140.336 46.528 138.352 48.016 135.984 49.04C133.648 50.064 131.008 50.576 128.064 50.576ZM146.659 50V14.384H154.147V50H146.659ZM173.385 50.384C170.633 50.384 168.185 49.808 166.041 48.656C163.929 47.504 162.249 45.936 161.001 43.952C159.785 41.936 159.177 39.648 159.177 37.088C159.177 34.496 159.785 32.208 161.001 30.224C162.249 28.208 163.929 26.64 166.041 25.52C168.185 24.368 170.633 23.792 173.385 23.792C176.105 23.792 178.537 24.368 180.681 25.52C182.825 26.64 184.505 28.192 185.721 30.176C186.937 32.16 187.545 34.464 187.545 37.088C187.545 39.648 186.937 41.936 185.721 43.952C184.505 45.936 182.825 47.504 180.681 48.656C178.537 49.808 176.105 50.384 173.385 50.384ZM173.385 44.24C174.633 44.24 175.753 43.952 176.745 43.376C177.737 42.8 178.521 41.984 179.097 40.928C179.673 39.84 179.961 38.56 179.961 37.088C179.961 35.584 179.673 34.304 179.097 33.248C178.521 32.192 177.737 31.376 176.745 30.8C175.753 30.224 174.633 29.936 173.385 29.936C172.137 29.936 171.017 30.224 170.025 30.8C169.033 31.376 168.233 32.192 167.625 33.248C167.049 34.304 166.761 35.584 166.761 37.088C166.761 38.56 167.049 39.84 167.625 40.928C168.233 41.984 169.033 42.8 170.025 43.376C171.017 43.952 172.137 44.24 173.385 44.24ZM203.446 50.384C201.302 50.384 199.382 49.968 197.686 49.136C196.022 48.304 194.726 47.04 193.798 45.344C192.87 43.616 192.406 41.424 192.406 38.768V24.176H199.894V37.664C199.894 39.808 200.342 41.392 201.238 42.416C202.166 43.408 203.462 43.904 205.126 43.904C206.278 43.904 207.302 43.664 208.198 43.184C209.094 42.672 209.798 41.904 210.31 40.88C210.822 39.824 211.078 38.512 211.078 36.944V24.176H218.566V50H211.462V42.896L212.758 44.96C211.894 46.752 210.614 48.112 208.918 49.04C207.254 49.936 205.43 50.384 203.446 50.384ZM236.591 50.384C234.159 50.384 231.967 49.84 230.015 48.752C228.063 47.632 226.511 46.08 225.359 44.096C224.239 42.112 223.679 39.776 223.679 37.088C223.679 34.368 224.239 32.016 225.359 30.032C226.511 28.048 228.063 26.512 230.015 25.424C231.967 24.336 234.159 23.792 236.591 23.792C238.767 23.792 240.671 24.272 242.303 25.232C243.935 26.192 245.199 27.648 246.095 29.6C246.991 31.552 247.439 34.048 247.439 37.088C247.439 40.096 247.007 42.592 246.143 44.576C245.279 46.528 244.031 47.984 242.399 48.944C240.799 49.904 238.863 50.384 236.591 50.384ZM237.887 44.24C239.103 44.24 240.207 43.952 241.199 43.376C242.191 42.8 242.975 41.984 243.551 40.928C244.159 39.84 244.463 38.56 244.463 37.088C244.463 35.584 244.159 34.304 243.551 33.248C242.975 32.192 242.191 31.376 241.199 30.8C240.207 30.224 239.103 29.936 237.887 29.936C236.639 29.936 235.519 30.224 234.527 30.8C233.535 31.376 232.735 32.192 232.127 33.248C231.551 34.304 231.263 35.584 231.263 37.088C231.263 38.56 231.551 39.84 232.127 40.928C232.735 41.984 233.535 42.8 234.527 43.376C235.519 43.952 236.639 44.24 237.887 44.24ZM244.655 50V44.72L244.799 37.04L244.319 29.408V14.384H251.807V50H244.655ZM262.001 59.696C260.657 59.696 259.329 59.488 258.017 59.072C256.705 58.656 255.633 58.08 254.801 57.344L257.537 52.016C258.113 52.528 258.769 52.928 259.505 53.216C260.273 53.504 261.025 53.648 261.761 53.648C262.817 53.648 263.649 53.392 264.257 52.88C264.897 52.4 265.473 51.584 265.985 50.432L267.329 47.264L267.905 46.448L277.169 24.176H284.369L272.705 51.584C271.873 53.664 270.913 55.296 269.825 56.48C268.769 57.664 267.585 58.496 266.273 58.976C264.993 59.456 263.569 59.696 262.001 59.696ZM266.417 51.008L254.897 24.176H262.625L271.553 45.776L266.417 51.008ZM301.547 50V16.4H316.811C320.459 16.4 323.675 17.104 326.459 18.512C329.243 19.888 331.419 21.824 332.987 24.32C334.555 26.816 335.339 29.776 335.339 33.2C335.339 36.592 334.555 39.552 332.987 42.08C331.419 44.576 329.243 46.528 326.459 47.936C323.675 49.312 320.459 50 316.811 50H301.547ZM309.323 43.616H316.427C318.667 43.616 320.603 43.2 322.234 42.368C323.899 41.504 325.179 40.288 326.075 38.72C327.003 37.152 327.467 35.312 327.467 33.2C327.467 31.056 327.003 29.216 326.075 27.68C325.179 26.112 323.899 24.912 322.234 24.08C320.603 23.216 318.667 22.784 316.427 22.784H309.323V43.616ZM340.675 50V24.176H348.163V50H340.675ZM344.419 20.576C343.043 20.576 341.923 20.176 341.059 19.376C340.195 18.576 339.763 17.584 339.763 16.4C339.763 15.216 340.195 14.224 341.059 13.424C341.923 12.624 343.043 12.224 344.419 12.224C345.795 12.224 346.915 12.608 347.779 13.376C348.643 14.112 349.075 15.072 349.075 16.256C349.075 17.504 348.643 18.544 347.779 19.376C346.947 20.176 345.827 20.576 344.419 20.576ZM363.8 50.384C361.592 50.384 359.464 50.128 357.416 49.616C355.4 49.072 353.8 48.4 352.616 47.6L355.112 42.224C356.296 42.96 357.688 43.568 359.288 44.048C360.92 44.496 362.52 44.72 364.088 44.72C365.816 44.72 367.032 44.512 367.736 44.096C368.472 43.68 368.84 43.104 368.84 42.368C368.84 41.76 368.552 41.312 367.976 41.024C367.432 40.704 366.696 40.464 365.768 40.304C364.84 40.144 363.816 39.984 362.696 39.824C361.608 39.664 360.504 39.456 359.384 39.2C358.264 38.912 357.24 38.496 356.312 37.952C355.384 37.408 354.632 36.672 354.056 35.744C353.512 34.816 353.24 33.616 353.24 32.144C353.24 30.512 353.704 29.072 354.632 27.824C355.592 26.576 356.968 25.6 358.76 24.896C360.552 24.16 362.696 23.792 365.192 23.792C366.952 23.792 368.744 23.984 370.568 24.368C372.392 24.752 373.912 25.312 375.128 26.048L372.632 31.376C371.384 30.64 370.12 30.144 368.84 29.888C367.592 29.6 366.376 29.456 365.192 29.456C363.528 29.456 362.312 29.68 361.544 30.128C360.776 30.576 360.392 31.152 360.392 31.856C360.392 32.496 360.664 32.976 361.208 33.296C361.784 33.616 362.536 33.872 363.464 34.064C364.392 34.256 365.4 34.432 366.488 34.592C367.608 34.72 368.728 34.928 369.848 35.216C370.968 35.504 371.976 35.92 372.872 36.464C373.8 36.976 374.552 37.696 375.128 38.624C375.704 39.52 375.992 40.704 375.992 42.176C375.992 43.776 375.512 45.2 374.552 46.448C373.592 47.664 372.2 48.624 370.376 49.328C368.584 50.032 366.392 50.384 363.8 50.384ZM386.804 44.72L386.996 35.6L399.044 24.176H407.972L396.404 35.936L392.516 39.104L386.804 44.72ZM380.612 50V14.384H388.1V50H380.612ZM399.86 50L391.124 39.152L395.828 33.344L408.932 50H399.86Z" fill="url(#paint0_linear_14_11)"/>
<path d="M13 46.3191C-0.333333 46.3191 -0.333333 26.2764 13 26.2764C13 6.2337 39.6667 -7.12811 53 12.9146C66.3333 6.23369 79.6667 19.5955 73 32.9573C86.3333 32.9573 86.3333 53 73 53H13V46.3191Z" stroke="url(#paint1_linear_14_11)" stroke-width="6"/>
<defs>
<linearGradient id="paint0_linear_14_11" x1="108" y1="50" x2="409" y2="3" gradientUnits="userSpaceOnUse">
<stop stop-color="#AF2BBF"/>
<stop offset="0.505" stop-color="#7763D2"/>
<stop offset="1" stop-color="#4A90E2"/>
</linearGradient>
<linearGradient id="paint1_linear_14_11" x1="83" y1="53" x2="3" y2="3" gradientUnits="userSpaceOnUse">
<stop stop-color="#AF2CC0"/>
<stop offset="1" stop-color="#4A90E2"/>
</linearGradient>
</defs>
</svg>
