<svg xmlns="http://www.w3.org/2000/svg" width="169" height="169" fill="none" class="Icon EmptyLayout__img--JR4T7"><path fill="url(#EmptyFileImg_svg__a)" d="M28.571 28.31a8 8 0 0 1 9.544-6.075l31.275 6.946 21.14 33.063-11.567 52.08a8 8 0 0 1-9.544 6.075l-50.609-11.24a8 8 0 0 1-6.075-9.544l15.836-71.304Z"></path><path fill="url(#EmptyFileImg_svg__b)" d="m65.388 48.329 4.24-19.096 20.93 32.88-19.095-4.24a8 8 0 0 1-6.075-9.544Z"></path><path fill="url(#EmptyFileImg_svg__c)" d="M90.675 72.964a8 8 0 0 1 11.308.38l13.674 14.623 7.772 8.611a8 8 0 0 1-.474 11.203L89.273 139.28a8 8 0 0 1-11.307-.379l-21.502-22.994a8 8 0 0 1 .38-11.307l33.831-31.636Z"></path><path fill="url(#EmptyFileImg_svg__d)" d="M134.391 20.595c.865-1.508-.474-3.325-2.171-2.946l-9.101 2.032a2 2 0 0 1-1.974-.673l-6.079-7.313c-1.151-1.385-3.403-.662-3.533 1.133l-.69 9.503a2 2 0 0 1-1.218 1.698l-8.573 3.618c-1.604.677-1.638 2.938-.055 3.662l8.848 4.047a2 2 0 0 1 1.159 1.635l.907 9.815c.164 1.773 2.389 2.464 3.528 1.096l5.892-7.073a1.999 1.999 0 0 1 2.042-.655l8.915 2.33c1.721.45 3.129-1.402 2.234-2.94l-4.961-8.525a2 2 0 0 1-.007-2l4.837-8.444Z"></path><path stroke="#293553" stroke-width="1.5" d="m40.129 150.123-6.143-50.49a7.4 7.4 0 0 1 6.452-8.24l24.995-3.04a3.7 3.7 0 0 1 3.137 1.133l7.203 7.63 26.232-3.191a7.4 7.4 0 0 1 8.24 6.452l4.941 40.614a7.4 7.4 0 0 1-6.452 8.24l-60.366 7.344a7.4 7.4 0 0 1-8.24-6.452Z"></path><path stroke="#293553" stroke-width="1.5" d="m68.583 89.487 7.19 7.63-41.48 5.046-.307-2.53a7.4 7.4 0 0 1 6.452-8.24l25.005-3.042a3.7 3.7 0 0 1 3.14 1.136Z"></path><circle cx="150" cy="79.5" r="8" stroke="#293553" stroke-width="1.5"></circle><defs><linearGradient id="EmptyFileImg_svg__a" x1="8.063" x2="96.519" y1="107.112" y2="37.143" gradientUnits="userSpaceOnUse"><stop stop-color="#006EFF" stop-opacity="0.4"></stop><stop offset="1" stop-color="#00C2FF" stop-opacity="0.15"></stop></linearGradient><linearGradient id="EmptyFileImg_svg__b" x1="62.467" x2="83.403" y1="55.98" y2="33.357" gradientUnits="userSpaceOnUse"><stop stop-color="#006EFF" stop-opacity="0.4"></stop><stop offset="1" stop-color="#00C2FF" stop-opacity="0.15"></stop></linearGradient><linearGradient id="EmptyFileImg_svg__c" x1="82.697" x2="96.357" y1="143.856" y2="67.536" gradientUnits="userSpaceOnUse"><stop stop-color="#FFA6BB" stop-opacity="0.7"></stop><stop offset="1" stop-color="#F3ADD7" stop-opacity="0.3"></stop></linearGradient><linearGradient id="EmptyFileImg_svg__d" x1="113.5" x2="133" y1="47" y2="7.5" gradientUnits="userSpaceOnUse"><stop stop-color="#FF8A00" stop-opacity="0.55"></stop><stop offset="1" stop-color="#FFA800" stop-opacity="0.15"></stop></linearGradient></defs></svg>