<svg width="14" height="14" viewBox="0 0 14 14" fill="none" xmlns="http://www.w3.org/2000/svg">
<path fill-rule="evenodd" clip-rule="evenodd" d="M6.89131 13.6658L7 13.6667C6.85282 13.6667 6.70568 13.6619 6.55881 13.6523C6.37706 13.6404 6.19587 13.6211 6.01569 13.5945C5.80636 13.5635 5.59864 13.5225 5.39322 13.4718C5.19072 13.4216 4.99071 13.362 4.79384 13.293L4.79275 13.2926C4.46856 13.1789 4.1537 13.0401 3.85103 12.8776C3.63622 12.7623 3.4279 12.6352 3.22703 12.497C3.00114 12.3417 2.78501 12.1726 2.57987 11.9908C2.5082 11.9273 2.43789 11.8622 2.369 11.7957C1.11384 10.5833 0.333344 8.88281 0.333344 7C0.333344 3.31813 3.31813 0.333344 7 0.333344C7.87548 0.333339 8.74239 0.505774 9.55123 0.840804C10.3601 1.17583 11.095 1.66689 11.7141 2.28595C12.3331 2.90501 12.8242 3.63994 13.1592 4.44877C13.4942 5.25761 13.6667 6.12452 13.6667 7C13.6667 8.88287 12.8861 10.5834 11.6309 11.7957C11.6309 11.7958 11.6309 11.796 11.6309 11.7961C11.3152 12.1009 10.9702 12.374 10.6011 12.6114L10.596 12.6147C10.5123 12.6684 10.4274 12.7203 10.3413 12.7702L10.3322 12.7755C10.1816 12.8625 10.0277 12.9436 9.87081 13.0186C9.8094 13.0479 9.74757 13.0763 9.68534 13.1038C9.62043 13.1323 9.55509 13.1598 9.48934 13.1864C9.42559 13.212 9.36147 13.2367 9.297 13.2604C9.23182 13.2843 9.16629 13.3072 9.10044 13.3291C9.03569 13.3505 8.97063 13.3709 8.90528 13.3904C8.83604 13.411 8.76648 13.4305 8.69662 13.4489C8.62864 13.4667 8.56038 13.4834 8.49187 13.4991C8.42352 13.5147 8.35493 13.5293 8.28613 13.5427C8.00566 13.5975 7.72196 13.6342 7.43678 13.6526C7.3659 13.6572 7.29496 13.6607 7.22397 13.663L7.22259 13.663C7.11221 13.6667 7.00175 13.6676 6.89131 13.6658ZM7.66669 9.66669H6.33334C5.27137 9.66669 4.34259 10.2916 3.91562 11.2053L3.86734 11.316L3.90912 11.3469C4.669 11.8882 5.57684 12.2352 6.56019 12.3155C6.58954 12.3179 6.61896 12.32 6.64844 12.3219L6.56425 12.3158C6.5929 12.3181 6.6216 12.3202 6.65037 12.3221L6.64844 12.3219C6.67694 12.3238 6.70548 12.3254 6.73406 12.3268L6.65037 12.3221C6.68006 12.324 6.70983 12.3257 6.73969 12.3271L6.73406 12.3268C6.7555 12.3279 6.77694 12.3288 6.79838 12.3296L7 12.3333L7.08359 12.3327C7.11433 12.3323 7.14506 12.3315 7.17578 12.3305L7.09141 12.3326C7.11984 12.3321 7.14823 12.3314 7.17656 12.3305L7.17578 12.3305C7.20434 12.3296 7.23286 12.3284 7.26134 12.3271L7.17656 12.3305C7.20594 12.3295 7.2353 12.3283 7.26466 12.3269L7.26134 12.3271C7.29101 12.3256 7.32059 12.3239 7.35009 12.3221L7.26466 12.3269C7.29355 12.3255 7.32241 12.3238 7.35122 12.322L7.35013 12.322C7.379 12.3202 7.40781 12.3181 7.43656 12.3158L7.35119 12.322C7.38056 12.3201 7.40991 12.3179 7.43922 12.3155L7.43656 12.3158C7.46448 12.3135 7.49233 12.311 7.52013 12.3083L7.43922 12.3155C7.46839 12.3132 7.49749 12.3105 7.52653 12.3077L7.52013 12.3083C8.47063 12.2163 9.34813 11.8748 10.0863 11.3501L10.132 11.316L10.0844 11.2054C9.67616 10.3314 8.80859 9.72156 7.80444 9.67019L7.66669 9.66669ZM7 1.66669C4.0545 1.66669 1.66669 4.0545 1.66669 7C1.66669 8.272 2.11197 9.44 2.85516 10.3566C3.54353 9.14806 4.84328 8.33334 6.33334 8.33334H7.66669C9.15678 8.33334 10.4566 9.14813 11.1448 10.3565C11.888 9.44 12.3333 8.272 12.3333 7C12.3333 4.0545 9.94553 1.66669 7 1.66669ZM7 2.33334C8.47278 2.33334 9.66669 3.52725 9.66669 5C9.66669 6.42813 8.54403 7.59406 7.13309 7.66344L7 7.66669C5.52725 7.66669 4.33334 6.47278 4.33334 5C4.33334 3.57187 5.456 2.40594 6.86691 2.33659L7 2.33334ZM7 3.66669C6.26363 3.66669 5.66669 4.26363 5.66669 5C5.66669 5.73637 6.26363 6.33334 7 6.33334C7.73637 6.33334 8.33334 5.73637 8.33334 5C8.33334 4.26363 7.73637 3.66669 7 3.66669Z" fill="url(#paint0_linear_40_11)"/>
<defs>
<linearGradient id="paint0_linear_40_11" x1="7.00002" y1="0.333344" x2="7.00002" y2="13.6667" gradientUnits="userSpaceOnUse">
<stop stop-color="#4A90E2"/>
<stop offset="1" stop-color="#AE2DC0"/>
</linearGradient>
</defs>
</svg>
